<?xml version="1.0" encoding="UTF-8"?>
<svg version="1.1" xmlns="http://www.w3.org/2000/svg" width="592" height="592">
<path d="M334 55 C334.71542969 55.34401855 335.43085938 55.68803711 336.16796875 56.04248047 C352.5359691 64.03641506 366.82709624 74.49719505 380.39697266 86.58789062 C382.13975314 88.12310877 383.91249496 89.61939552 385.6875 91.1171875 C388.11639439 93.19459317 390.31994868 95.29263705 392.375 97.75 C394.21661644 99.9264558 396.06076021 102.06428594 398.01953125 104.13671875 C417.91369949 125.24962883 431.35985506 151.45058822 440.28613281 178.82861328 C440.89280137 180.67393138 441.53274142 182.50825799 442.1796875 184.33984375 C452.42653883 214.56408353 452.22361717 248.88216629 447 280 C446.87141602 280.78455566 446.74283203 281.56911133 446.61035156 282.37744141 C443.20612488 302.2094439 435.57102669 321.37780923 426 339 C425.52304687 339.94101562 425.04609375 340.88203125 424.5546875 341.8515625 C406.00458743 377.78575636 374.41155094 407.13824354 339 426 C338.38189453 426.3309668 337.76378906 426.66193359 337.12695312 427.00292969 C290.04748081 451.97655841 233.74425461 457.26402631 182.66357422 441.83691406 C150.61235276 431.76619113 122.24544482 415.32560499 98 392 C97.45811035 391.48002441 96.9162207 390.96004883 96.35791016 390.42431641 C57.99912288 353.40168427 34.92811875 301.76468685 33.87890625 248.32421875 C33.38273185 211.96052187 40.16606882 176.05999647 58 144 C58.64245121 142.80496912 59.28437809 141.60965622 59.92578125 140.4140625 C67.39165189 126.72099411 76.76670198 114.71058615 87 103 C87.72316406 102.15308594 88.44632812 101.30617188 89.19140625 100.43359375 C92.76727066 96.29790712 96.44676411 92.52180391 100.62890625 89 C102.4766766 87.44141941 104.28750702 85.85983299 106.08984375 84.25 C168.50333003 28.91673402 259.60004075 19.19913465 334 55 Z M123.58984375 132.10546875 C101.40123206 156.90450535 86.11451721 187.796803 82 221 C81.88914063 221.87398437 81.77828125 222.74796875 81.6640625 223.6484375 C76.98432393 266.77792001 90.15115615 310.13546199 117 344 C120.80345063 348.52623573 124.86899209 352.77416264 129 357 C129.66128906 357.72316406 130.32257813 358.44632812 131.00390625 359.19140625 C156.40276945 386.34569844 197.5914458 401.94885777 234.04296875 403.34375 C261.42863608 403.92148318 287.32636597 399.10781989 312 387 C312.61504395 386.70399902 313.23008789 386.40799805 313.86376953 386.10302734 C330.98447594 377.77877529 345.60966788 366.45670304 359 353 C359.84046875 352.15953125 360.6809375 351.3190625 361.546875 350.453125 C391.44884214 318.85459235 404.14172622 275.88687405 403.140625 233.22119141 C401.50921984 195.85181686 385.31756086 159.28206607 360 132 C359.52868652 131.4848584 359.05737305 130.9697168 358.57177734 130.43896484 C332.61612006 102.31657443 294.46266584 83.88574505 256.21484375 81.125 C205.28837318 79.14486992 159.47062759 95.17791974 123.58984375 132.10546875 Z " fill="#030303"/>
<path d="M251.484375 220.875 C256.92348689 224.07943778 261.98479881 228.95439522 263.99999999 235 C264.14648081 237.26763574 264.22096259 239.54032366 264.25 241.8125 C264.27578125 243.01519531 264.3015625 244.21789062 264.328125 245.45703125 C263.78653906 251.3048699 261.5152218 255.02372994 257.0625 258.75 C256.39347656 259.32234375 255.72445312 259.8946875 255.03515625 260.484375 C248.84971999 265.09080372 242.51467541 264.80875428 235 264 C229.02263307 261.89476385 224.53183373 257.1572105 221 252 C219.00408072 246.01224217 218.76116272 238.44952104 220.90625 232.4765625 C227.47523682 221.48614224 239.00738256 216.48058757 251.484375 220.875 Z " fill="#242424"/>
<path d="M249 258 C250.98 258 252.96 258 255 258 C255 258.99 255 259.98 255 261 C249.25 264 249.25 264 247 264 C247.66 262.02 248.32 260.04 249 258 Z " fill="#303030"/>
</svg>
